<svg height="512" viewBox="0 0 512 512" width="512" xmlns="http://www.w3.org/2000/svg"><g><g><path d="m216 304h80v64h-80z" fill="#ffdaaa"/><g><path d="m336 176v64a80 80 0 0 1 -80 80 80 80 0 0 1 -80-80v-64" fill="#ffdaaa"/><path d="m440 406.4v89.6h-368v-89.6a40 40 0 0 1 29.294-38.54l114.706-31.86c0 22.09 17.91 24 40 24s40-1.91 40-24l114.706 31.863a40 40 0 0 1 29.294 38.537z" fill="#787680"/><path d="m336 184h12a12 12 0 0 1 12 12v40a12 12 0 0 1 -12 12h-12a0 0 0 0 1 0 0v-64a0 0 0 0 1 0 0z" fill="#ffdaaa"/><path d="m152 184h12a12 12 0 0 1 12 12v40a12 12 0 0 1 -12 12h-12a0 0 0 0 1 0 0v-64a0 0 0 0 1 0 0z" fill="#ffdaaa" transform="matrix(-1 0 0 -1 328 432)"/><path d="m168 144h176v24h-176z" fill="#e0e0e2"/></g><path d="m360 72a32.012 32.012 0 0 1 -24 30.99v41.01h-160v-41.01a32 32 0 1 1 33.39-50.48 48.007 48.007 0 0 1 93.22 0 32.007 32.007 0 0 1 57.39 19.49z" fill="#787680"/></g><g><path d="m288 264a8 8 0 0 0 -8-8h-48a8 8 0 0 0 0 16h48a8 8 0 0 0 8-8z"/><path d="m412.85 360.15-108.85-30.23v-16.2a88.223 88.223 0 0 0 38.54-57.72h5.46a20.02 20.02 0 0 0 20-20v-40a20.02 20.02 0 0 0 -20-20h-4a8 8 0 0 0 8-8v-24a8 8 0 0 0 -8-8v-27.33a40.014 40.014 0 1 0 -38.06-70.07 56.052 56.052 0 0 0 -99.88 0 40.017 40.017 0 1 0 -38.06 70.07v27.33a8 8 0 0 0 -8 8v24a8 8 0 0 0 8 8h-4a20.02 20.02 0 0 0 -20 20v40a20.02 20.02 0 0 0 20 20h5.46a88.223 88.223 0 0 0 38.54 57.72v16.2l-108.85 30.23a48.153 48.153 0 0 0 -35.15 46.25v89.6a8 8 0 0 0 8 8h368a8 8 0 0 0 8-8v-89.6a48.153 48.153 0 0 0 -35.15-46.25zm-244.85-120.15h-4a4 4 0 0 1 -4-4v-40a4 4 0 0 1 4-4h4zm180-48a4 4 0 0 1 4 4v40a4 4 0 0 1 -4 4h-4v-48zm-188-120a24.006 24.006 0 0 1 43.05-14.61 8 8 0 0 0 14.11-2.97 40.005 40.005 0 0 1 77.68 0 8 8 0 0 0 14.11 2.97 24 24 0 1 1 25.06 37.85 8 8 0 0 0 -6.01 7.75v33.01h-144v-33.01a8 8 0 0 0 -6.01-7.75 23.973 23.973 0 0 1 -17.99-23.24zm16 80h160v8h-160zm8 88v-64h144v64a72 72 0 0 1 -144 0zm104 81.98v14.02c0 11.8-4.83 15.99-31.95 16h-.05c-27.17 0-32-4.19-32-16v-14.02a88.06 88.06 0 0 0 64 0zm-88 70.02v96h-56v-56a8 8 0 0 0 -16 0v56h-48v-81.6a32.093 32.093 0 0 1 23.44-30.83l105.83-29.4c2.2 8.05 7.28 13.88 15.18 17.42a41.26 41.26 0 0 0 7.92 2.55l-28.81 19.2a8.033 8.033 0 0 0 -3.56 6.66zm232 96h-48v-56a8 8 0 0 0 -16 0v56h-152v-91.72l42.44-28.29c11.88-.1 21.44-.97 29.11-4.4 7.9-3.54 12.98-9.37 15.19-17.42l105.82 29.4a32.093 32.093 0 0 1 23.44 30.83z"/><circle cx="216" cy="208" r="8"/><circle cx="296" cy="208" r="8"/><circle cx="232" cy="440" r="8"/><circle cx="232" cy="408" r="8"/><circle cx="232" cy="472" r="8"/></g></g></svg>